<?xml version="1.0" standalone="no"?>
<!DOCTYPE svg PUBLIC "-//W3C//DTD SVG 20010904//EN"
 "http://www.w3.org/TR/2001/REC-SVG-20010904/DTD/svg10.dtd">
<svg version="1.0" xmlns="http://www.w3.org/2000/svg"
 width="512.000000pt" height="512.000000pt" viewBox="0 0 512.000000 512.000000"
 preserveAspectRatio="xMidYMid meet">
<metadata>
Created by potrace 1.14, written by Peter Selinger 2001-2017
</metadata>
<g transform="translate(0.000000,512.000000) scale(0.100000,-0.100000)"
fill="#000000" stroke="none">
<path d="M1931 5084 c-176 -48 -318 -192 -368 -375 -15 -55 -18 -107 -17 -371
l0 -307 -555 -3 c-543 -3 -558 -4 -621 -25 -166 -56 -295 -211 -335 -400 -22
-105 -22 -3088 0 -3182 36 -150 145 -296 266 -354 125 -61 -21 -57 2259 -57
2280 0 2134 -4 2259 57 76 37 179 142 219 224 66 137 63 37 60 1756 l-3 1558
-23 65 c-65 180 -188 297 -359 340 -71 19 -113 20 -608 20 l-531 0 0 308 c1
261 -2 316 -16 369 -47 169 -163 299 -326 365 l-57 23 -595 2 c-497 2 -604 0
-649 -13z m1139 -789 l0 -265 -510 0 -510 0 0 265 0 265 510 0 510 0 0 -265z
m-1215 -1354 c169 -35 303 -108 412 -224 90 -96 151 -217 168 -330 l7 -47
-151 0 -151 0 -11 28 c-24 63 -57 118 -98 164 -97 109 -198 151 -361 151 -125
-1 -205 -23 -296 -81 -116 -75 -220 -227 -258 -377 -50 -198 -41 -443 23 -628
61 -176 192 -312 352 -368 92 -32 258 -32 348 0 131 46 237 146 278 262 l18
49 152 0 c105 0 153 -3 153 -11 0 -35 -37 -145 -73 -214 -56 -110 -180 -234
-292 -292 -124 -64 -207 -84 -371 -90 -205 -8 -343 24 -497 115 -80 47 -197
160 -254 245 -242 364 -239 945 7 1308 122 178 331 313 540 348 97 16 258 12
355 -8z m1468 -786 c148 -429 272 -782 274 -785 2 -2 8 1 12 8 4 8 126 356
271 775 145 419 268 768 273 775 12 16 327 18 327 2 0 -8 -538 -1469 -700
-1902 l-21 -58 -157 0 -157 0 -359 973 c-198 534 -361 978 -364 985 -3 10 31
12 163 10 l168 -3 270 -780z"/>
</g>
</svg>
