<?xml version="1.0" standalone="no"?>
<!DOCTYPE svg PUBLIC "-//W3C//DTD SVG 20010904//EN"
 "http://www.w3.org/TR/2001/REC-SVG-20010904/DTD/svg10.dtd">
<svg version="1.0" xmlns="http://www.w3.org/2000/svg"
 width="512.000000pt" height="512.000000pt" viewBox="0 0 512.000000 512.000000"
 preserveAspectRatio="xMidYMid meet">
<metadata>
Created by potrace 1.14, written by Peter Selinger 2001-2017
</metadata>
<g transform="translate(0.000000,512.000000) scale(0.100000,-0.100000)"
fill="#000000" stroke="none">
<path d="M1632 4324 c-152 -32 -271 -157 -291 -308 -4 -28 -7 -84 -6 -123 l1
-73 -551 -1 c-302 0 -565 -2 -584 -5 -79 -10 -168 -91 -191 -173 -6 -22 -10
-446 -10 -1155 l0 -1120 91 185 c115 232 468 947 624 1264 139 282 163 322
239 396 80 78 224 161 306 175 14 3 40 9 59 14 21 6 583 10 1374 10 737 0
1343 2 1346 5 4 2 6 51 5 108 -3 153 -41 223 -146 272 l-53 25 -567 0 -568 0
-1 83 c-1 120 -6 152 -37 217 -44 92 -124 163 -222 195 -49 17 -94 19 -408 20
-236 0 -372 -3 -410 -11z m759 -249 c60 -31 74 -76 70 -222 l-1 -33 -440 0
-440 0 4 93 c4 118 25 153 101 170 11 3 168 5 349 5 267 1 334 -2 357 -13z"/>
<path d="M1467 3163 c-1 -1 -29 -2 -62 -4 -108 -4 -209 -51 -289 -134 -45 -46
-34 -25 -449 -865 -644 -1306 -598 -1208 -590 -1259 6 -40 35 -80 73 -98 33
-16 151 -17 1845 -17 996 0 1830 3 1853 7 67 10 165 63 222 120 55 55 14 -26
640 1242 414 839 402 813 405 863 4 62 -18 100 -74 124 -42 20 -79 20 -1808
21 -971 1 -1765 1 -1766 0z"/>
</g>
</svg>
